<svg enable-background="new 0 0 30 30" viewBox="0 0 30 30" xmlns="http://www.w3.org/2000/svg"><path d="m4.65 16.96c0 1.32.47 2.46 1.4 3.41.93.96 2.06 1.46 3.38 1.5.12 0 .18-.06.18-.17v-1.33c0-.12-.06-.18-.18-.18-.84-.04-1.57-.38-2.17-1.02s-.91-1.37-.91-2.22c0-.84.28-1.57.85-2.19s1.26-.97 2.1-1.04l.53-.07c.12 0 .19-.06.19-.18l.07-.5c.1-1.09.55-2.01 1.36-2.75s1.76-1.11 2.86-1.11c1.08 0 2.03.37 2.84 1.1s1.28 1.63 1.4 2.71l.07.58c0 .12.06.18.19.18h1.6c.9 0 1.67.32 2.32.97.64.64.97 1.41.97 2.3 0 .84-.3 1.58-.9 2.22-.6.63-1.33.97-2.18 1.02-.13 0-.2.06-.2.18v1.33c0 .11.07.17.2.17 1.33-.04 2.46-.54 3.38-1.5s1.38-2.09 1.38-3.42c0-.89-.22-1.72-.67-2.48-.44-.76-1.05-1.36-1.81-1.8s-1.59-.66-2.48-.66h-.31c-.33-1.34-1.03-2.43-2.11-3.29-1.07-.85-2.3-1.28-3.68-1.28-1.41 0-2.66.44-3.75 1.31s-1.79 1.99-2.1 3.35c-1.13.29-2.04.88-2.75 1.77s-1.07 1.93-1.07 3.09zm5.4 7.02c0 .17.05.34.16.51s.27.28.47.35c.23.07.44.06.64-.04.19-.09.33-.28.39-.56l.14-.61c.05-.23.02-.44-.09-.63s-.28-.33-.52-.4c-.22-.07-.44-.04-.64.08s-.34.3-.4.53l-.14.59c0 .03-.01.09-.01.18zm.76-2.9c0 .21.08.4.25.57.16.17.34.25.56.25.24 0 .44-.08.6-.24s.24-.35.24-.59c0-.23-.08-.43-.24-.59s-.36-.24-.6-.24c-.23 0-.42.08-.58.23-.15.18-.23.38-.23.61zm.61-2.27c-.01.16.03.31.14.45.1.15.26.25.48.32.21.06.41.04.62-.07s.34-.28.41-.51l.28-.9c.07-.24.05-.46-.07-.65s-.3-.32-.54-.39c-.22-.07-.43-.05-.63.07-.2.11-.34.28-.41.5l-.24.92c0 .02-.01.06-.02.12-.01.05-.02.1-.02.14zm1.17 8.29c0 .18.05.34.15.5s.26.27.48.33c.08.02.17.03.25.03.43 0 .69-.2.79-.61l.14-.59c.06-.26.03-.48-.08-.68-.12-.2-.29-.32-.52-.37-.21-.07-.42-.05-.63.07s-.34.29-.41.51l-.14.59c-.02.09-.03.16-.03.22zm.77-2.9c0 .22.08.41.25.58.16.16.35.24.57.24.24 0 .43-.08.59-.23.16-.16.23-.35.23-.59 0-.23-.08-.42-.23-.58-.16-.16-.35-.23-.59-.23s-.43.08-.59.23-.23.35-.23.58zm.63-2.27c-.01.15.03.31.13.47s.25.26.45.3c.23.06.44.04.64-.06s.33-.29.41-.56l.27-.9c.07-.22.05-.43-.07-.63s-.29-.33-.53-.4c-.22-.07-.43-.04-.64.08s-.34.3-.41.53l-.23.9c-.01.08-.02.17-.02.27zm2.76 2.15c0 .16.05.32.15.48s.26.27.46.33c.03 0 .08.01.14.02s.1.02.14.02c.41 0 .66-.22.76-.66l.14-.6c.07-.21.05-.42-.07-.63-.11-.21-.28-.34-.51-.41-.25-.06-.48-.04-.68.08s-.34.29-.41.53l-.09.59c0 .02-.01.07-.02.12s-.01.09-.01.13zm.74-2.96c0 .22.08.42.25.57.15.16.34.24.57.24.24 0 .43-.08.59-.23s.23-.35.23-.58c0-.24-.08-.43-.23-.59s-.35-.23-.59-.23-.43.08-.59.23c-.15.16-.23.35-.23.59zm.61-2.31c0 .17.05.33.16.48s.27.26.49.32c.02 0 .06.01.12.02s.11.02.14.02c.1 0 .22-.03.36-.09.21-.11.35-.29.41-.52l.24-.9c.06-.23.04-.44-.08-.63-.11-.2-.28-.33-.51-.4s-.44-.05-.64.06c-.19.11-.33.27-.39.51l-.28.91c0 .02-.01.06-.02.12z"/></svg>