<svg enable-background="new 0 0 30 30" viewBox="0 0 30 30" xmlns="http://www.w3.org/2000/svg"><path d="m7.46 14.41c0-.19.07-.36.2-.5s.29-.21.48-.21.36.07.49.21.2.3.2.5c0 .19-.07.35-.2.48s-.3.2-.48.2-.35-.07-.48-.2c-.15-.14-.21-.3-.21-.48zm1.98 0c0-.19.07-.36.2-.5s.29-.21.48-.21h3.23l-2.28-2.28c-.14-.12-.21-.28-.21-.47s.07-.35.21-.49.3-.21.49-.21.35.07.49.21l2.27 2.27v-3.21c0-.19.07-.36.21-.5s.3-.21.5-.21c.19 0 .35.07.48.21s.2.3.2.5v3.23l2.29-2.3c.14-.14.3-.21.48-.21s.35.07.49.21c.12.14.18.3.18.49s-.06.35-.18.47l-2.28 2.28h3.23c.18 0 .34.07.47.21s.2.3.2.5c0 .18-.07.34-.2.47s-.29.2-.47.2h-3.23l2.29 2.29c.12.12.18.28.18.47s-.06.35-.18.49c-.14.14-.31.21-.49.21s-.35-.07-.48-.21l-2.29-2.3v3.24c0 .19-.07.36-.2.49s-.29.2-.48.2-.36-.07-.5-.2-.21-.3-.21-.49v-3.22l-2.27 2.27c-.14.14-.3.21-.49.21s-.35-.07-.49-.21-.21-.3-.21-.49.07-.34.21-.47l2.3-2.29h-3.24c-.19 0-.35-.07-.48-.2-.16-.11-.22-.27-.22-.45zm.01 4.84c0-.18.07-.35.21-.48.12-.14.28-.21.47-.21s.35.07.49.21.21.3.21.48-.07.35-.21.48c-.14.14-.3.21-.49.21s-.35-.07-.47-.21c-.14-.13-.21-.29-.21-.48zm0-9.71c0-.18.07-.35.21-.48.12-.14.28-.21.47-.21s.35.07.49.21.21.3.21.48-.07.35-.21.49-.3.21-.49.21-.35-.07-.47-.21c-.14-.14-.21-.31-.21-.49zm4.85 11.71c0-.18.07-.34.21-.47s.3-.2.5-.2c.19 0 .35.07.48.2s.2.29.2.47c0 .19-.07.36-.2.49s-.29.2-.48.2-.36-.07-.5-.2-.21-.29-.21-.49zm0-13.71c0-.19.07-.36.21-.49s.3-.2.5-.2c.19 0 .35.07.48.2s.2.3.2.49c0 .18-.07.34-.2.47s-.29.2-.48.2-.36-.07-.5-.2-.21-.29-.21-.47zm4.87 11.71c0-.18.07-.35.21-.48.12-.14.28-.21.47-.21s.35.07.49.21.21.3.21.48-.07.35-.21.48c-.14.14-.3.21-.49.21s-.35-.07-.47-.21c-.14-.13-.21-.29-.21-.48zm0-9.71c0-.18.07-.35.21-.48.12-.14.28-.21.47-.21s.35.07.49.21.21.3.21.48-.07.35-.21.49-.3.21-.49.21-.35-.07-.47-.21c-.14-.14-.21-.31-.21-.49zm2 4.87c0-.19.07-.36.2-.5s.3-.21.49-.21c.18 0 .34.07.47.21s.2.3.2.5c0 .18-.07.34-.2.47s-.29.2-.47.2c-.19 0-.36-.07-.49-.2s-.2-.29-.2-.47z"/></svg>